HIERARCHY
ROOT Hips
{
	OFFSET 0.000000 83.214638 0.000000
	CHANNELS 6 Xposition Yposition Zposition Xrotation Yrotation Zrotation
	JOINT Pelvis
	{
		OFFSET 0.000000 0.000000 0.000000
		CHANNELS 3 Xrotation Yrotation Zrotation
		JOINT LeftUpLeg
		{
			OFFSET 8.479700 -4.795502 -0.379100
			CHANNELS 3 Xrotation Yrotation Zrotation
			JOINT LeftLeg
			{
				OFFSET 0.024144 -32.555107 0.112900
				CHANNELS 3 Xrotation Yrotation Zrotation
				JOINT LeftFoot
				{
					OFFSET -0.024144 -32.638630 -3.012600
					CHANNELS 3 Xrotation Yrotation Zrotation
					JOINT LeftToeBase
					{
						OFFSET 0.970200 -13.225400 11.864200
						CHANNELS 3 Xrotation Yrotation Zrotation
						End Site
						{
							OFFSET 0.000000 12.319262 0.000000
						}
					}
					JOINT LFootTongue
					{
						OFFSET 1.142400 -1.059800 6.665200
						CHANNELS 3 Xrotation Yrotation Zrotation
						End Site
						{
							OFFSET 0.000000 12.319262 0.000000
						}
					}
				}
				JOINT LeftPantLeg
				{
					OFFSET 0.918482 -16.533964 -2.284700
					CHANNELS 3 Xrotation Yrotation Zrotation
					End Site
					{
						OFFSET 0.350399 24.744368 0.000000
					}
				}
			}
		}
		JOINT RightUpLeg
		{
			OFFSET -8.479700 -4.795502 -0.379100
			CHANNELS 3 Xrotation Yrotation Zrotation
			JOINT RightLeg
			{
				OFFSET -0.023144 -32.555092 0.112900
				CHANNELS 3 Xrotation Yrotation Zrotation
				JOINT RightFoot
				{
					OFFSET 0.023144 -32.638641 -3.012700
					CHANNELS 3 Xrotation Yrotation Zrotation
					JOINT RightToeBase
					{
						OFFSET -0.970200 -13.225400 11.864200
						CHANNELS 3 Xrotation Yrotation Zrotation
						End Site
						{
							OFFSET 0.000000 12.319244 0.000000
						}
					}
					JOINT RFootTongue
					{
						OFFSET -1.142200 -1.059800 6.665200
						CHANNELS 3 Xrotation Yrotation Zrotation
						End Site
						{
							OFFSET 0.000000 12.319243 0.000000
						}
					}
				}
				JOINT RightPantLeg
				{
					OFFSET -0.919482 -16.533978 -2.284800
					CHANNELS 3 Xrotation Yrotation Zrotation
					End Site
					{
						OFFSET -0.350400 24.744419 0.000000
					}
				}
			}
		}
	}
	JOINT Spine
	{
		OFFSET 0.000000 7.722000 1.166200
		CHANNELS 3 Xrotation Yrotation Zrotation
		JOINT Spine1
		{
			OFFSET 0.000000 12.024101 0.248800
			CHANNELS 3 Xrotation Yrotation Zrotation
			JOINT Spine2
			{
				OFFSET 0.000000 11.502998 -0.491200
				CHANNELS 3 Xrotation Yrotation Zrotation
				JOINT Neck
				{
					OFFSET 0.000000 18.430702 -3.123100
					CHANNELS 3 Xrotation Yrotation Zrotation
					JOINT Head
					{
						OFFSET 0.000000 9.051102 1.034000
						CHANNELS 3 Xrotation Yrotation Zrotation
						JOINT HairB
						{
							OFFSET 0.208400 24.786102 24.822300
							CHANNELS 3 Xrotation Yrotation Zrotation
							End Site
							{
								OFFSET 0.000000 32.263779 0.000000
							}
						}
						JOINT HairA
						{
							OFFSET -7.081100 24.428299 23.196600
							CHANNELS 3 Xrotation Yrotation Zrotation
							End Site
							{
								OFFSET 0.000000 32.263779 0.000000
							}
						}
						JOINT Hat
						{
							OFFSET 16.728800 15.048294 -15.439601
							CHANNELS 3 Xrotation Yrotation Zrotation
							End Site
							{
								OFFSET 0.000000 32.263779 0.000000
							}
						}
					}
				}
				JOINT LeftShoulder
				{
					OFFSET 6.197800 13.665199 -4.064700
					CHANNELS 3 Xrotation Yrotation Zrotation
					JOINT LeftArm
					{
						OFFSET 7.778100 -0.187103 -1.709300
						CHANNELS 3 Xrotation Yrotation Zrotation
						JOINT LeftForeArm
						{
							OFFSET 22.049376 0.000000 0.000000
							CHANNELS 3 Xrotation Yrotation Zrotation
							JOINT LeftHand
							{
								OFFSET 23.009392 0.000000 0.000000
								CHANNELS 3 Xrotation Yrotation Zrotation
								JOINT LeftHandThumb1
								{
									OFFSET 3.507191 -2.063065 3.133727
									CHANNELS 3 Xrotation Yrotation Zrotation
									JOINT LeftHandThumb2
									{
										OFFSET 3.101337 -1.790558 1.790558
										CHANNELS 3 Xrotation Yrotation Zrotation
										JOINT LeftHandThumb3
										{
											OFFSET 3.058640 -1.765907 1.765906
											CHANNELS 3 Xrotation Yrotation Zrotation
											End Site
											{
												OFFSET -0.415260 3.926476 -0.049563
											}
										}
									}
								}
								JOINT LeftHandIndex1
								{
									OFFSET 11.334419 -0.901459 3.706815
									CHANNELS 3 Xrotation Yrotation Zrotation
									JOINT LeftHandIndex2
									{
										OFFSET 3.283112 0.000000 0.000000
										CHANNELS 3 Xrotation Yrotation Zrotation
										JOINT LeftHandIndex3
										{
											OFFSET 3.323853 0.000000 0.000000
											CHANNELS 3 Xrotation Yrotation Zrotation
											End Site
											{
												OFFSET -1.135597 3.097809 0.402452
											}
										}
									}
								}
								JOINT LeftHandMiddle1
								{
									OFFSET 11.335861 0.000000 0.000000
									CHANNELS 3 Xrotation Yrotation Zrotation
									JOINT LeftHandMiddle2
									{
										OFFSET 3.410492 0.000000 0.000000
										CHANNELS 3 Xrotation Yrotation Zrotation
										JOINT LeftHandMiddle3
										{
											OFFSET 3.312172 0.000000 0.000000
											CHANNELS 3 Xrotation Yrotation Zrotation
											End Site
											{
												OFFSET -1.150200 3.080154 0.400270
											}
										}
									}
								}
								JOINT LeftHandRing1
								{
									OFFSET 11.514786 -0.013176 -3.003090
									CHANNELS 3 Xrotation Yrotation Zrotation
									JOINT LeftHandRing2
									{
										OFFSET 3.053307 0.000000 0.000000
										CHANNELS 3 Xrotation Yrotation Zrotation
										JOINT LeftHandRing3
										{
											OFFSET 3.295807 0.000000 0.000000
											CHANNELS 3 Xrotation Yrotation Zrotation
											End Site
											{
												OFFSET -1.281006 3.013344 0.375733
											}
										}
									}
								}
								JOINT LeftHandPinky1
								{
									OFFSET 10.518692 -0.960396 -5.730441
									CHANNELS 3 Xrotation Yrotation Zrotation
									JOINT LeftHandPinky2
									{
										OFFSET 2.861649 0.000000 0.000000
										CHANNELS 3 Xrotation Yrotation Zrotation
										JOINT LeftHandPinky3
										{
											OFFSET 2.863380 0.000000 0.000000
											CHANNELS 3 Xrotation Yrotation Zrotation
											End Site
											{
												OFFSET -0.843597 2.711159 0.369971
											}
										}
									}
								}
							}
							JOINT LSleeve
							{
								OFFSET 6.676277 -0.344902 -1.011730
								CHANNELS 3 Xrotation Yrotation Zrotation
								End Site
								{
									OFFSET 0.000000 14.885353 0.000000
								}
							}
						}
					}
				}
				JOINT RightShoulder
				{
					OFFSET -6.197800 13.665199 -4.064700
					CHANNELS 3 Xrotation Yrotation Zrotation
					JOINT RightArm
					{
						OFFSET -7.778100 -0.187103 -1.709300
						CHANNELS 3 Xrotation Yrotation Zrotation
						JOINT RightForeArm
						{
							OFFSET -22.049376 0.000000 0.000000
							CHANNELS 3 Xrotation Yrotation Zrotation
							JOINT RightHand
							{
								OFFSET -23.009392 0.000000 0.000000
								CHANNELS 3 Xrotation Yrotation Zrotation
								JOINT RightHandThumb1
								{
									OFFSET -3.507191 -2.063065 3.133727
									CHANNELS 3 Xrotation Yrotation Zrotation
									JOINT RightHandThumb2
									{
										OFFSET -3.101337 -1.790558 1.790558
										CHANNELS 3 Xrotation Yrotation Zrotation
										JOINT RightHandThumb3
										{
											OFFSET -3.058640 -1.765907 1.765906
											CHANNELS 3 Xrotation Yrotation Zrotation
											End Site
											{
												OFFSET 0.415260 3.926476 -0.049563
											}
										}
									}
								}
								JOINT RightHandIndex1
								{
									OFFSET -11.334419 -0.901459 3.706815
									CHANNELS 3 Xrotation Yrotation Zrotation
									JOINT RightHandIndex2
									{
										OFFSET -3.283112 0.000000 0.000000
										CHANNELS 3 Xrotation Yrotation Zrotation
										JOINT RightHandIndex3
										{
											OFFSET -3.323853 0.000000 0.000000
											CHANNELS 3 Xrotation Yrotation Zrotation
											End Site
											{
												OFFSET 1.135597 3.097809 0.402452
											}
										}
									}
								}
								JOINT RightHandMiddle1
								{
									OFFSET -11.335861 0.000000 0.000000
									CHANNELS 3 Xrotation Yrotation Zrotation
									JOINT RightHandMiddle2
									{
										OFFSET -3.410492 0.000000 0.000000
										CHANNELS 3 Xrotation Yrotation Zrotation
										JOINT RightHandMiddle3
										{
											OFFSET -3.312172 0.000000 0.000000
											CHANNELS 3 Xrotation Yrotation Zrotation
											End Site
											{
												OFFSET 1.150200 3.080154 0.400270
											}
										}
									}
								}
								JOINT RightHandRing1
								{
									OFFSET -11.514786 -0.013176 -3.003090
									CHANNELS 3 Xrotation Yrotation Zrotation
									JOINT RightHandRing2
									{
										OFFSET -3.053307 0.000000 0.000000
										CHANNELS 3 Xrotation Yrotation Zrotation
										JOINT RightHandRing3
										{
											OFFSET -3.295807 0.000000 0.000000
											CHANNELS 3 Xrotation Yrotation Zrotation
											End Site
											{
												OFFSET 1.281006 3.013344 0.375733
											}
										}
									}
								}
								JOINT RightHandPinky1
								{
									OFFSET -10.518692 -0.960396 -5.730441
									CHANNELS 3 Xrotation Yrotation Zrotation
									JOINT RightHandPinky2
									{
										OFFSET -2.861649 0.000000 0.000000
										CHANNELS 3 Xrotation Yrotation Zrotation
										JOINT RightHandPinky3
										{
											OFFSET -2.863380 0.000000 0.000000
											CHANNELS 3 Xrotation Yrotation Zrotation
											End Site
											{
												OFFSET 0.843597 2.711159 0.369971
											}
										}
									}
								}
							}
							JOINT RSleeve
							{
								OFFSET -6.676277 -0.344902 -1.011730
								CHANNELS 3 Xrotation Yrotation Zrotation
								End Site
								{
									OFFSET 0.000000 14.885353 0.000000
								}
							}
						}
					}
				}
				JOINT Backpack
				{
					OFFSET 0.000000 -2.471497 36.677502
					CHANNELS 3 Xrotation Yrotation Zrotation
					End Site
					{
						OFFSET 0.000000 20.427315 0.000000
					}
				}
				JOINT Hood
				{
					OFFSET 0.000000 18.754097 -10.431000
					CHANNELS 3 Xrotation Yrotation Zrotation
					JOINT Hood1
					{
						OFFSET 0.000000 -5.011002 -7.685901
						CHANNELS 3 Xrotation Yrotation Zrotation
						End Site
						{
							OFFSET 0.000000 9.175140 0.000000
						}
					}
				}
				JOINT LHoodieString
				{
					OFFSET 5.250500 16.397697 3.089900
					CHANNELS 3 Xrotation Yrotation Zrotation
					JOINT LHoodieString1
					{
						OFFSET 0.257700 -6.364304 3.694600
						CHANNELS 3 Xrotation Yrotation Zrotation
						JOINT LHoodieString2
						{
							OFFSET 0.000000 -9.643799 2.679100
							CHANNELS 3 Xrotation Yrotation Zrotation
							End Site
							{
								OFFSET 0.000000 10.009018 0.000000
							}
						}
					}
				}
				JOINT RHoodieString
				{
					OFFSET -5.250500 16.397697 3.089900
					CHANNELS 3 Xrotation Yrotation Zrotation
					JOINT RHoodieString1
					{
						OFFSET -0.257700 -6.364304 3.694600
						CHANNELS 3 Xrotation Yrotation Zrotation
						JOINT RHoodieString2
						{
							OFFSET 0.000000 -9.643799 2.679100
							CHANNELS 3 Xrotation Yrotation Zrotation
							End Site
							{
								OFFSET 0.000000 10.009018 0.000000
							}
						}
					}
				}
			}
			JOINT LBackpack_Strap
			{
				OFFSET 15.223200 -7.719803 -6.610900
				CHANNELS 3 Xrotation Yrotation Zrotation
				End Site
				{
					OFFSET 0.000000 16.040596 0.000000
				}
			}
			JOINT RBackpack_Strap
			{
				OFFSET -15.223000 -7.719803 -6.610900
				CHANNELS 3 Xrotation Yrotation Zrotation
				End Site
				{
					OFFSET 0.000000 16.040596 0.000000
				}
			}
		}
	}
	JOINT BoyFacialAnim_Joint
	{
		OFFSET 1.000000 -82.208099 -1.550900
		CHANNELS 3 Xrotation Yrotation Zrotation
		End Site
		{
			OFFSET 0.000000 30.012791 0.000000
		}
	}
}
MOTION
Frames: 5
Frame Time: 0.033333
11.337503 80.284775 7.877056 -7.184354 2.418969 2.472346 -0.000000 0.000000 -0.000000 -4.528462 7.707871 -5.490209 25.752528 5.141174 0.242480 -14.181554 -0.481866 3.320366 0.000000 0.000000 -0.000000 0.000000 0.000000 -0.000000 0.000001 -0.000001 -0.000000 -16.944065 -8.835453 -16.996270 15.587328 8.734154 1.545118 1.864032 18.067968 10.779716 0.000000 0.000001 0.000000 0.000000 0.000001 0.000000 -0.000000 0.000000 -0.000000 5.867667 -2.442979 -2.492792 4.561325 -2.270090 -2.114970 4.561850 -2.269960 -2.114014 5.163385 0.959658 1.954328 -15.912442 9.011733 3.505055 0.000000 -0.000001 -0.000000 0.000000 -0.000001 -0.000000 0.000000 -0.000001 -0.000000 0.797524 0.314322 -16.024821 -2.122380 -33.029009 -50.439175 0.000012 -15.901995 0.000018 -2.460752 -0.274443 0.209852 1.597815 1.741542 0.449898 18.481029 23.722949 1.350929 0.000001 0.000000 -0.000001 -1.031581 1.816060 -28.510989 1.930211 4.346412 -47.874794 -0.000003 0.000002 -0.000002 0.489977 4.877063 -36.784206 1.923199 4.340079 -47.782163 0.000002 0.000001 0.000000 1.273554 6.014645 -46.191234 2.196660 4.572601 -51.300762 -0.000002 -0.000001 -0.000004 2.035760 6.766541 -43.479844 1.922558 4.339506 -47.773622 0.000001 -0.000001 0.000001 0.000003 -0.000001 0.000001 -0.511009 13.286953 22.317095 -40.281512 18.708568 52.119640 0.000028 135.554571 -0.000010 -5.043653 17.704719 -3.214427 -1.665253 -0.174479 -4.219020 10.441174 -15.026816 -13.219504 -0.000001 0.000000 0.000000 -0.390347 1.213565 6.802451 0.214481 -1.398440 17.438069 -0.000001 0.000001 -0.000003 -0.059626 -1.447158 5.798439 4.099285 -4.623709 83.112453 0.000002 0.000001 -0.000000 0.032119 -1.577149 1.242376 6.535587 -4.262311 113.810397 -0.000001 -0.000000 -0.000003 0.369475 -4.069789 15.595675 5.212533 -4.624036 96.856023 0.000001 0.000000 0.000004 0.000000 0.000000 0.000001 0.000000 -0.000000 0.000000 0.000000 -0.000000 0.000000 0.000000 -0.000000 0.000000 0.000000 -0.000000 0.000000 0.000000 -0.000000 0.000000 -0.000000 -0.000000 -0.000000 0.000000 -0.000000 0.000000 0.000000 -0.000000 0.000000 -0.000000 -0.000000 -0.000000 -0.000000 0.000000 -0.000000 -0.000000 0.000000 -0.000000 -0.000000 0.000000 -0.000000 
10.697298 80.275368 8.441613 -7.173928 3.528859 2.943723 0.000000 -0.000000 -0.000000 -4.144161 7.721030 -5.183316 25.726317 3.782302 0.176450 -14.396915 -0.448063 3.025603 0.000000 -0.000000 0.000000 0.000000 -0.000000 -0.000000 0.000000 0.000001 0.000000 -16.671172 -9.067509 -16.823459 15.690423 8.750577 1.518713 2.832088 17.710184 9.600207 0.000000 -0.000001 0.000000 0.000000 -0.000001 0.000000 0.000000 -0.000000 -0.000000 5.748996 -2.500990 -2.617021 4.468133 -2.320785 -2.215448 4.468694 -2.320655 -2.214491 5.195931 0.968090 1.974075 -15.746103 8.994034 3.508988 -0.000000 -0.000000 -0.000000 -0.000000 -0.000000 -0.000000 -0.000000 -0.000000 -0.000000 0.795885 0.292430 -16.011741 -2.471842 -32.064525 -51.078064 -0.000003 -15.233185 0.000007 -0.319822 -0.178133 -0.246915 1.597814 1.741560 0.449890 18.481025 23.722936 1.350932 0.000002 0.000002 0.000002 -1.031573 1.816043 -28.510994 1.930202 4.346419 -47.874773 -0.000000 0.000001 0.000000 0.489977 4.877056 -36.784216 1.923186 4.340068 -47.782149 0.000003 -0.000001 0.000002 1.273550 6.014651 -46.191255 2.196664 4.572600 -51.300776 -0.000002 -0.000001 -0.000001 2.035760 6.766547 -43.479868 1.922550 4.339496 -47.773625 -0.000001 -0.000001 -0.000000 -0.000000 0.000001 -0.000001 -0.494030 13.162950 22.282712 -40.026777 18.798219 52.153026 0.000038 135.597792 -0.000037 -4.840408 17.897264 -3.523536 -1.665253 -0.174478 -4.219019 10.441167 -15.026812 -13.219556 -0.000000 0.000001 -0.000001 -0.390346 1.213566 6.802450 0.214480 -1.398441 17.438060 0.000000 -0.000001 0.000005 -0.059627 -1.447157 5.798436 4.099284 -4.623707 83.112426 0.000000 0.000001 0.000002 0.032115 -1.577148 1.242357 6.535582 -4.262318 113.810404 -0.000001 -0.000000 0.000000 0.369469 -4.069787 15.595656 5.212534 -4.624033 96.856030 -0.000000 0.000001 0.000000 -0.000000 -0.000000 -0.000001 0.000001 -0.000000 0.000000 0.000001 -0.000000 0.000000 0.000001 -0.000000 0.000000 0.000001 -0.000000 0.000000 0.000001 -0.000000 0.000000 0.000000 -0.000000 -0.000000 0.000001 -0.000000 0.000000 0.000001 -0.000000 0.000000 0.000000 -0.000000 -0.000000 -0.000000 -0.000000 -0.000000 -0.000000 -0.000000 -0.000000 0.000000 -0.000000 -0.000000 
10.008238 80.317497 9.100867 -7.193215 4.614753 3.304990 0.000000 0.000001 0.000000 -3.539430 7.785342 -4.687735 25.396665 2.339020 0.105378 -14.529759 -0.407596 2.681187 -0.000000 0.000001 0.000000 -0.000000 0.000001 0.000000 -0.000000 0.000000 0.000000 -16.760398 -9.265909 -16.729295 17.278722 9.153177 1.448305 2.080483 16.624590 8.743627 -0.000000 0.000002 0.000000 -0.000000 0.000002 0.000000 0.000000 0.000000 -0.000001 5.591183 -2.492038 -2.671890 4.373248 -2.313085 -2.250896 4.373794 -2.312964 -2.249989 5.227858 0.962674 1.967282 -15.559873 8.963221 3.455739 -0.000000 0.000001 0.000000 -0.000000 0.000001 0.000000 -0.000000 0.000001 0.000000 0.802651 0.327738 -16.157151 -3.424445 -30.416970 -52.046745 -0.000002 -13.975210 -0.000008 2.615799 -0.270176 -0.762975 1.597794 1.741550 0.449886 18.481051 23.722932 1.350942 0.000001 0.000000 -0.000000 -1.031575 1.816041 -28.510970 1.930203 4.346414 -47.874797 0.000001 -0.000000 -0.000005 0.489971 4.877055 -36.784202 1.923193 4.340081 -47.782139 0.000000 0.000000 -0.000005 1.273549 6.014649 -46.191244 2.196677 4.572603 -51.300765 -0.000002 -0.000001 0.000003 2.035754 6.766551 -43.479844 1.922555 4.339504 -47.773622 -0.000001 0.000001 0.000002 0.000003 0.000000 0.000001 -0.479813 13.075946 22.231221 -39.659896 18.778941 52.029127 -0.000005 135.735120 -0.000011 -4.634877 18.108513 -3.973623 -1.665252 -0.174478 -4.219020 10.441167 -15.026816 -13.219535 0.000000 -0.000000 -0.000000 -0.390347 1.213567 6.802449 0.214478 -1.398442 17.438064 -0.000002 -0.000001 0.000002 -0.059626 -1.447158 5.798433 4.099290 -4.623706 83.112426 -0.000000 -0.000000 0.000001 0.032115 -1.577146 1.242336 6.535587 -4.262319 113.810418 -0.000001 0.000000 0.000000 0.369465 -4.069787 15.595649 5.212533 -4.624036 96.856010 0.000000 -0.000001 -0.000002 -0.000000 -0.000000 -0.000001 0.000000 0.000000 0.000000 0.000000 0.000000 0.000000 0.000000 0.000000 0.000000 0.000000 0.000000 0.000000 0.000000 0.000000 0.000000 -0.000001 0.000000 -0.000000 0.000000 0.000000 0.000000 0.000000 0.000000 0.000000 -0.000001 0.000000 -0.000000 0.000000 -0.000000 0.000000 0.000000 -0.000000 0.000000 0.000000 0.000001 0.000000 
9.317576 80.433441 9.837875 -7.305068 5.712348 3.499960 -0.000000 0.000000 0.000000 -2.613315 7.866338 -3.987634 24.638999 0.828579 0.031468 -14.510158 -0.368691 2.312663 0.000000 -0.000000 -0.000000 0.000000 -0.000000 -0.000000 -0.000001 -0.000001 0.000000 -16.518565 -9.918363 -16.586426 18.723669 9.510609 1.395916 0.721601 15.710883 8.098999 0.000000 0.000002 -0.000000 0.000000 0.000002 -0.000000 -0.000000 -0.000000 0.000001 5.435728 -2.456251 -2.585358 4.291136 -2.287919 -2.185524 4.291628 -2.287838 -2.184668 5.269409 0.956576 1.912398 -15.391138 9.005257 3.337002 -0.000000 0.000001 0.000000 -0.000000 0.000001 0.000000 -0.000000 0.000001 0.000000 0.817056 0.440834 -16.392017 -4.305660 -28.742778 -52.965002 -0.000002 -12.399542 -0.000010 5.241812 -0.157681 -1.238222 1.597821 1.741543 0.449896 18.481042 23.722939 1.350945 0.000001 -0.000003 -0.000002 -1.031566 1.816043 -28.510991 1.930213 4.346407 -47.874773 0.000001 -0.000003 -0.000006 0.489981 4.877057 -36.784206 1.923185 4.340079 -47.782139 0.000002 -0.000001 -0.000003 1.273559 6.014636 -46.191244 2.196668 4.572608 -51.300759 -0.000001 0.000001 -0.000004 2.035760 6.766547 -43.479847 1.922551 4.339505 -47.773625 -0.000000 -0.000001 -0.000002 -0.000000 0.000001 -0.000001 -0.469232 13.033366 22.163131 -39.280729 18.686974 51.823702 0.000011 135.870781 -0.000028 -4.706570 18.149261 -4.195970 -1.665255 -0.174479 -4.219017 10.441162 -15.026817 -13.219555 0.000000 -0.000000 -0.000001 -0.390348 1.213567 6.802454 0.214480 -1.398441 17.438065 0.000000 0.000000 0.000002 -0.059630 -1.447154 5.798428 4.099284 -4.623711 83.112433 0.000000 0.000000 -0.000000 0.032114 -1.577150 1.242381 6.535586 -4.262316 113.810390 -0.000001 0.000000 0.000004 0.369470 -4.069785 15.595670 5.212534 -4.624041 96.856030 -0.000001 -0.000001 0.000000 -0.000000 0.000000 -0.000000 -0.000000 0.000000 0.000001 -0.000000 0.000000 0.000001 -0.000000 0.000000 0.000001 -0.000000 0.000000 0.000001 -0.000000 0.000000 0.000001 -0.000000 -0.000000 0.000000 -0.000000 0.000000 0.000001 -0.000000 0.000000 0.000001 -0.000000 -0.000000 0.000000 0.000000 0.000000 0.000000 0.000000 0.000000 0.000000 -0.000000 0.000000 0.000000 
8.606400 80.602135 10.615385 -7.445173 6.770832 3.510403 0.000000 -0.000000 -0.000000 -1.536398 8.019530 -3.047170 23.585239 -0.726595 -0.043753 -14.370042 -0.326216 1.891263 0.000000 0.000000 0.000000 0.000000 0.000000 0.000000 -0.000001 0.000001 -0.000000 -15.826023 -10.806798 -16.153787 19.402459 9.676012 1.363196 -0.295044 15.073703 7.432446 -0.000000 -0.000000 0.000000 -0.000000 -0.000000 0.000000 0.000000 -0.000000 -0.000000 5.267801 -2.401197 -2.396228 4.180520 -2.246552 -2.030172 4.180953 -2.246505 -2.029357 5.330952 0.952072 1.850749 -15.147632 9.134278 3.200689 -0.000000 0.000001 -0.000000 -0.000000 0.000001 -0.000000 -0.000000 0.000001 -0.000000 0.830410 0.593054 -16.517023 -4.448908 -27.395995 -53.596815 -0.000006 -11.331105 -0.000006 6.687106 0.767011 -1.475038 1.597808 1.741552 0.449893 18.481030 23.722946 1.350965 -0.000001 0.000001 -0.000001 -1.031579 1.816047 -28.510989 1.930198 4.346409 -47.874766 0.000001 -0.000002 -0.000002 0.489983 4.877061 -36.784196 1.923193 4.340078 -47.782139 0.000003 -0.000002 -0.000000 1.273543 6.014644 -46.191248 2.196662 4.572601 -51.300762 -0.000003 0.000003 -0.000002 2.035749 6.766541 -43.479874 1.922544 4.339506 -47.773611 0.000003 -0.000003 -0.000001 0.000002 0.000001 -0.000000 -0.460379 12.960986 22.153932 -39.020068 18.621355 51.622419 0.000015 135.938004 -0.000020 -5.202757 17.873444 -3.899415 -1.665253 -0.174478 -4.219017 10.441167 -15.026816 -13.219520 -0.000000 0.000000 0.000001 -0.390347 1.213566 6.802454 0.214479 -1.398442 17.438067 0.000000 0.000003 -0.000001 -0.059620 -1.447159 5.798435 4.099285 -4.623704 83.112447 0.000000 0.000000 -0.000000 0.032119 -1.577153 1.242374 6.535583 -4.262316 113.810397 -0.000000 0.000000 0.000000 0.369476 -4.069788 15.595661 5.212530 -4.624036 96.856003 -0.000002 -0.000001 -0.000003 -0.000000 0.000000 -0.000003 0.000000 0.000000 -0.000000 0.000000 0.000000 -0.000000 0.000000 0.000000 -0.000000 0.000000 0.000000 -0.000000 0.000000 0.000000 -0.000000 0.000000 0.000000 -0.000000 0.000000 0.000000 -0.000000 0.000000 0.000000 -0.000000 0.000000 0.000000 -0.000000 -0.000000 0.000000 0.000000 -0.000000 0.000000 0.000000 0.000000 -0.000000 -0.000000 
